<svg id="Capa_1" enable-background="new 0 0 511.998 511.998" height="512" viewBox="0 0 511.998 511.998" width="512" xmlns="http://www.w3.org/2000/svg"><path d="m437.902 154.105 3.507-20.025 44.02-44.02-63.49-63.49-44.016 44.016-20.031 3.509c-67.921-49.84-133.7-74.095-200.871-74.095-.398 0-.802 0-1.199.002l-6.181.026-16.859 16.88 12.724 10.499c35.097 28.958 68.256 61.077 103.361 95.081 7.955 7.706 16.13 15.624 24.347 23.52l-6.219 35.507-266.995 266.995 63.49 63.487 266.991-266.989 35.51-6.222c7.898 8.22 15.818 16.396 23.526 24.354 34.003 35.104 66.119 68.259 95.073 103.353l10.511 12.74 16.867-16.887.026-6.17c.292-67.585-23.957-133.747-74.092-202.071zm5.102-64.045-15.549 15.549-21.064-21.064 15.549-15.549zm-400.576 358.45 238.523-238.524 21.063 21.064-238.524 238.521zm334.154-242.037-48.262 8.455-31.249-31.249 8.454-48.263s-83.305-80.504-107.087-101.906c48.252 8.199 96.604 30.813 146.673 68.462l5.197 3.908 29.775-5.217 31.249 31.249-5.215 29.776 3.908 5.197c37.652 50.073 60.265 98.417 68.461 146.673-21.397-23.777-101.904-107.085-101.904-107.085z"/></svg>